<?xml version="1.0" encoding="UTF-8"?>
<svg id="Layer_1" data-name="Layer 1" xmlns="http://www.w3.org/2000/svg" viewBox="0 0 1024 1024">
  <path d="M489,275c.03.66-.06,1.34,0,2,13.03-1.74,26.19.38,39.01,3,.32.07.68-.07,1,0l.5.98.5-.98c13.29,2.82,26.99,11.59,37.47,20.03,1.89,1.52,4.99,5.73,6.55,6.45,3.32,1.53,7.34-.32,10.98-.48l25.23,2.27c21.83,3.32,39.98,15.25,56.77,28.73.34.33.67.67,1,1,0,1.68,1.99,4.33,3.45,4.62.25.05.48-.63.55-.62.66.04,1.34-.02,2,0l.5.98.5-.98c30.89.69,56.21,6.41,76,32l7.48,14.02c13.15,26.31,6,56.36,5.48,84.44-1.18,63.03,2.89,121.73-5.96,184.54-.05.33.05.67,0,1-4.04,11.68-6.11,23.95-9.73,35.77-4.6,15-11.39,28.94-16.16,43.84-2.46,42.06,2.91,87.18-.12,128.88-.78,10.78-3.96,18.2-8.99,27.51-.31.36-.69.65-1,1l-2,2c-.33.33-.66.68-1,1l-1,1c-.35.31-.64.69-1,1-2.87-.43-3.57,2.26-4.79,2.92-5.86,3.13-15.03,5.62-21.67,6.12h-328.08c-10.42-.35-19-5.71-27.46-11.04-1.14-1.1-1.87-1.75-3-3-3.4-7.53-8.11-14.66-8.99-23.51-2.81-28.18.5-63.81.03-93.03-.29-17.88.79-36.52-5.28-53.72-13.68-38.77-32.4-81.34-40.3-121.7-6.23-31.84.92-46.64,14.81-73.3,8.67-16.63,12.35-18.53,12.67-38.19,1.81-111.94,1.24-226.06.07-338.06-.02-1.69.64-4.45-1.02-5.49,4-59.11,67.32-97.44,122.52-77.02,31.99,11.83,57.88,41.85,60.47,76.53,3.11,41.75-.01,85.42,2.01,127.49ZM365,103c-3.84,1.87-5.13,3.5-8,6-2.69-.47-2.89.89-4.25,2.25-10.27,10.25-17.53,23.49-18.74,38.27-2.51,30.74.89,63.21,1.03,93.94.34,72.69-.74,145.41-.1,218.1.12,13.47,2.12,27.37,1.09,40.99-1.08,14.14-11.87,28.15-18.04,40.46-1,1.99-2.06,3.98-3,6l-7.19,11.31c-7.07,16.75-5.76,28.32-1.07,45.46,7.91,28.92,19.64,60.04,29.25,88.75,7.47,22.34,15.05,36.55,16.06,60.94,1.48,35.72-2.92,75.01-.08,110.08.34,4.17.52,5.39,3.03,8.46.79.96,1.2,1.25,2,2,.32,3.56,4.47,4.79,6.96,6.54,64.06,1.69,128.53-.22,192.5-.59,44.34-.25,88.69.27,133.04.05,1.72-1.6-2.96-.99-3.5-1,1.52-2.38,4.79.14,7.06-.42,1.86-.46,2.27-2.15,2.94-2.58,5.75-3.73,7.21-4.77,7.99-12.51,4.29-42.79-3.28-92.37.12-135.88,39.48-78.73,28.71-166.03,31.85-251.15.85-23.15,8.31-58.49-2.06-78.86-13.86-27.23-50.68-38.29-76.41-20.65-2.36-4.98-3.75-10.33-6.59-15.13-16.79-28.36-52.53-37.23-82.31-24.69-1.5.63-3.07.65-2.59,2.86-1.39.67-2.57.77-4,2-2.78.34-2.52.3-3.5-1.96-1.57-3.63-2.36-6.94-4.33-10.7-.29-.56-2.9-6.08-4.17-4.33-.4-.7-.7-1.51-1-2-14.73-24.02-54.12-27.67-77.71-15.21l-13.28,9.2-1-143.49c-1.42-1.62-.98,1.12-1.01,1.98-.4,13.46.01,27.06,0,40.52-1.66-1.04-1-3.8-1.02-5.49-.31-29.9,5.91-69.73-11.98-94.51-3.09-4.28-4.75-5.9-9-9-3.26-2.38-5.54-3.3-9-5-.48-3.68-7.85-5.57-10.99-6.51-15.12-4.55-36.05-4.27-49.01,5.51Z" style="fill: #0eb17a;"/>
  <path d="M304,148c1.66,1.04,1,3.79,1.02,5.49,1.18,112,1.75,226.12-.07,338.06-.32,19.66-4.01,21.55-12.67,38.19-13.89,26.66-21.04,41.46-14.81,73.3,7.89,40.36,26.62,82.93,40.3,121.7,6.07,17.2,4.99,35.84,5.28,53.72.47,29.22-2.84,64.86-.03,93.03.88,8.85,5.59,15.98,8.99,23.51-6.04-6.66-10.15-15.25-10.98-24.52-3.57-39.82,2.82-84.77.03-125.03-1.08-15.48-11.76-35.7-17.06-50.94-11.1-31.89-34.39-91.72-29.71-123.75,4.28-29.22,23.7-46,29.71-73.29l.02-349.48Z" style="fill: #0c8c46;"/>
  <path d="M751,374c23.54,30.45,15.64,52.39,14.96,87.46-1.2,62.12,4.41,126.42-5.46,187.6-.38,2.34-.73,6.34-2.5,7.94,8.85-62.81,4.78-121.51,5.96-184.54.52-28.08,7.67-58.13-5.48-84.44l-7.48-14.02Z" style="fill: #0c8c46;"/>
  <path d="M335,898c8.46,5.33,17.04,10.69,27.46,11.04h328.08c6.64-.5,15.8-2.99,21.67-6.12,1.23-.66,1.93-3.35,4.79-2.92-6.79,5.82-11.9,9.21-21.46,10.04h-338.08c-9.3-.85-16.09-5.88-22.46-12.04Z" style="fill: #0c8c46;"/>
  <path d="M758,658c-2.59,18.33-7.88,36.22-14.25,54.25-4.24,11.97-9.92,19.92-10.79,33.21-2.65,40.71,4.01,87.14.03,127.03-.9,9.03-4.43,15.01-9.99,21.51,5.03-9.31,8.21-16.73,8.99-27.51,3.03-41.7-2.34-86.82.12-128.88,4.76-14.9,11.56-28.85,16.16-43.84,3.62-11.82,5.7-24.09,9.73-35.77Z" style="fill: #0c8c46;"/>
  <path d="M585,306c34.77-1.51,57.54,6.93,82,31-16.79-13.48-34.94-25.41-56.77-28.73l-25.23-2.27Z" style="fill: #0c8c46;"/>
  <path d="M528,280c-12.82-2.62-25.97-4.75-39.01-3-.05-.66.04-1.33,0-2,12.31-.67,22.66.07,34.56,2.94,1.67.4,3.77-.4,4.44,2.06Z" style="fill: #0c8c46;"/>
  <path d="M672,342c-.07,0-.31.67-.55.62-1.46-.3-3.44-2.95-3.45-4.62,1.32,1.33,2.46,2.88,4,4Z" style="fill: #0c8c46;"/>
  <path d="M674,342c.33.01.67,0,1,0l-.5.98-.5-.98Z" style="fill: #0c8c46;"/>
  <path d="M529,280c.32.07.68-.07,1,0l-.5.98-.5-.98Z" style="fill: #0c8c46;"/>
  <path d="M720,897l2-2c-.73.82-1.28,1.29-2,2Z" style="fill: #0c8c46;"/>
  <path d="M718,899l1-1c-.34.32-.65.69-1,1Z" style="fill: #0c8c46;"/>
  <path d="M425,104c3.46,1.7,5.74,2.62,9,5l9,9c17.89,24.79,11.67,64.61,11.98,94.51.02,1.69-.64,4.45,1.02,5.49-.04,34.99.02,70.01.01,105,25.74-25.57,68.94-25.62,92.99,2,.3.49.6,1.3,1,2,3.65,6.43,7.12,13.57,8.01,21,2.65-.09,3.76-3.8,3.99-4,1.43-1.23,2.61-1.33,4-2,20.78-10.05,42.5-9.5,62.67,1.83,13.5,7.58,25.35,22.24,26.33,38.17.74.9,7.68-4.72,9.1-5.39,38.17-18.19,75.18,12.62,73.89,52.89-.59,18.58-2.97,36.47-2.99,55.51-1.85,5.67-.99,12.94-1,19-.1,78.02,2.88,155.72-31.89,227.61l-.09,135.91c-.71,4.01-2.73,8.09-6.02,10.48-.67.44-1.08,2.12-2.94,2.58-2.27.56-5.54-1.96-7.06.42-106.43-1.97-213.09,1.44-319.55.05-3.88.29-6.85-2.62-9.45-5.05-.8-.75-1.21-1.04-2-2-1.57-5.2-.64-10.34-.96-15.54-.08-1.3-1.04-2.61-1.04-2.96v-117c-10.67-32.64-23.04-64.81-33.48-97.52-4.57-14.31-11.83-33.47-14.22-47.78-3.17-18.99,2.04-27.84,9.71-44.21.94-2.02,2-4.01,3-6,8-10.39,13.45-22.71,18.94-34.56.16-28.14,0-56.31.06-84.44.08-33.47.43-67.04.02-100.51-.02-1.69.64-4.45-1.02-5.49v-171.49c2.13-14.83,9.91-27.86,21-37.51,2.87-2.5,4.16-4.13,8-6,20.69-10.07,39.7-8.99,60,1ZM372,122c-1.64.96-3.46,2.71-5,4-8.46,7.08-12.3,15.62-13.99,26.51-.18,61.85.99,123.65.99,185.49,0,24.15-.32,48.36-.02,72.51.02,1.69-.64,4.45,1.02,5.49-.02,19.32,0,38.68.01,57.99,1.81-1.09,2.13-5.04,2.99-6.99,1.47-3.37,3.31-6.73,5-10l9-14c2.17-2.62,3.55-3.8,6-6,16.1-11.96,37.1-11.61,55.56-17.94l3.44-37.06c4.5-29.74,2.4-68.68,2.02-99.51-.02-1.69.64-4.45-1.02-5.49.03-27.79.6-55.75.04-83.54-.05-2.36-1.02-4.55-1.08-6.92-.46-18.51,4.21-43.4-9.96-57.54-1.27-1.27-3.48-2.91-5-4l-8.62-6.88c-12.76-6.07-30.65-5.75-41.38,3.88ZM534,338c-2.37-5.03-10.12-10.78-15.63-12.87-24.27-9.2-54.21,4.35-59.12,30.62l-7.25,59.24,34-7.99c.91-.17,2.08.16,3,0,5.24-.91,10.13-2.71,15-4,2.31-.61,4.67-1.37,7-2,8.57.57,16.45-3.62,24.92-4.08,1.14-6.6,2.2-13.28,3.08-19.92.78-5.84,2.23-13.3,2-19-.2-4.92-1.93-11.97-4.18-16.37-.73-1.43-.44-3.15-2.82-2.63-.12-.28.13-.73,0-1ZM592,419c1.39,3.1,3.93,5.83,5.52,8.98,14.59,28.83,6.74,61.26-21.22,77.82-13.44,7.96-28.98,10.23-43.35,15.86-4.12,42.78,51.93,68.44,77.87,31.67,6.44-9.13,4.64-15.82,6.27-25.73,6.76-40.98,15.57-84.34,20.82-125.18,6.99-54.35-65.32-66.18-79.65-24.65-2.13,6.18-2.38,12.98-4.28,19.22,9.58,1.26,18.24,5.48,26.01,11.01,4.82,3.43,7.85,6.59,12,11ZM653,425c-.08.99.1,2.02,0,3-4.95,28.53-10.62,57.22-14,86-.39,3.31-.67,6.68-1,10-2.6,10.6-5.86,22.76-1.76,33.26,10.27,26.33,52.67,28.13,65.92,3.4,6.25-11.67,4.62-25.18,6.13-37.88,3.53-29.64,10.75-65.07,11.69-94.29,1.51-46.72-63.13-53.46-66.99-3.49ZM512,422c-2.2.47-4.61,1.48-7,2-1.69-.31-3.03-.56-4.76-.28-32.26,5.09-65.68,16.35-98.09,21.93-8.5,2.29-15.68,8.3-20.35,15.65-13.83,21.77-27.58,54.74-39.8,78.7-.87,1.7-1.32,3.68-2,5-2.49-.55-2.03,1.31-2.8,2.64-11.14,19.27-18.65,27.49-12.21,50.87,12.42,45.1,31.78,90.44,45.76,135.24.67,36.4,0,72.84.26,109.24.04,5.72-.54,12.49,0,18,.06.65-.08,1.34,0,2h2s166-1,166-1c48.32-.02,96.68.02,145,0v-134.5c0-7,9.55-24.04,12.47-31.53,7.55-19.38,12.56-39.17,14.53-59.97.53-5.64.64-11.35,1-17,4.01-14.31.77-29.87,4.01-44.49-2.41-2.12-2.76,2.82-4.01,4.49-1.83,2.43-2.95,3.13-5,5-15.97,11.03-32.69,15.73-51.76,10.26-14.35-4.12-26.08-12.38-33.74-25.24-1.52,1.02-2.36,2.68-3.5,3.98-.3.34-.68.66-1,1-5.02,3.01-9.62,7.1-15.01,9.49-23.76,10.54-49.96,3.68-68.99-12.49-.35-.3-.65-.69-1-1-7.84-9.32-13.69-20.24-16.24-32.25-.44-2.05-.26-10.58-1.76-10.75-1.15-.09-2.02.61-3,1l-58.93,15.07c.04,3.74.82,7.13.93,10.93.14,4.64.02,9.36,0,14,0,1,.02,2,0,3s.03,2,0,3c-3.29,13.77-10.24,37.61-21.98,46.52-9.3,7.05-19.63-2.75-14.02-12.52.35-.32.66-.67,1-1,11.13-11.08,16.15-27.53,17-43,.13-2.29.06-4.7,0-7-.08-3-.71-6.02-1.01-9-6.06.82-9.75,3.93-16.26,2.76-8.09-1.45-9.02-13.44-2.31-16.79,50.52-15.14,102.91-25.41,152.27-43.78,28.73-17.77,23.52-58.79-6.33-72.05-15.96-7.09-33.73-1.2-49.36,3.86Z" style="fill: #fefefe;"/>
  <path d="M357,109c-11.09,9.65-18.87,22.68-20.99,37.51v171.49c0,33.47-.44,67.03-.03,100.51.02,1.69-.64,4.45,1.02,5.49-.07,28.13.1,56.3-.06,84.44-5.49,11.85-10.94,24.17-18.94,34.56,6.16-12.32,16.96-26.32,18.04-40.46,1.04-13.62-.97-27.53-1.09-40.99-.65-72.68.44-145.41.1-218.1-.14-30.73-3.54-63.2-1.03-93.94,1.2-14.78,8.47-28.02,18.74-38.27,1.36-1.36,1.55-2.72,4.25-2.25Z" style="fill: #0c8c46;"/>
  <path d="M686,881c.53,0,5.22-.59,3.5,1-44.34.22-88.7-.3-133.04-.05-63.97.36-128.44,2.27-192.5.59-2.48-1.76-6.64-2.98-6.96-6.54,2.6,2.43,5.58,5.34,9.45,5.05,106.46,1.39,213.12-2.02,319.55-.05Z" style="fill: #0c8c46;"/>
  <path d="M566,342c-.49-2.21,1.08-2.23,2.59-2.86,29.78-12.54,65.51-3.67,82.31,24.69,2.84,4.79,4.23,10.14,6.59,15.13,25.74-17.64,62.55-6.58,76.41,20.65,10.37,20.36,2.91,55.71,2.06,78.86-3.14,85.12,7.64,172.43-31.85,251.15-3.41,43.5,4.17,93.09-.12,135.88-.78,7.74-2.24,8.78-7.99,12.51,3.29-2.38,5.31-6.47,6.02-10.48l.09-135.91c34.77-71.89,31.79-149.59,31.89-227.61,1.85-5.68.99-12.94,1-19,.02-19.04,2.4-36.93,2.99-55.51,1.29-40.27-35.72-71.08-73.89-52.89-1.42.68-8.36,6.29-9.1,5.39-.99-15.93-12.83-30.59-26.33-38.17-20.17-11.33-41.89-11.88-62.67-1.83Z" style="fill: #0c8c46;"/>
  <path d="M456,218c.01-13.46-.4-27.06,0-40.52.03-.86-.41-3.6,1.01-1.98l1,143.49,13.28-9.2c23.59-12.46,62.98-8.81,77.71,15.21-24.05-27.62-67.25-27.57-92.99-2,0-34.99-.05-70.01-.01-105Z" style="fill: #0c8c46;"/>
  <path d="M315,549c-7.67,16.36-12.88,25.22-9.71,44.21,2.39,14.3,9.65,33.46,14.22,47.78,10.45,32.71,22.81,64.88,33.48,97.52v117c0,.35.96,1.66,1.04,2.96.32,5.2-.61,10.33.96,15.54-2.51-3.08-2.7-4.29-3.03-8.46-2.84-35.07,1.56-74.36.08-110.08-1.01-24.39-8.59-38.6-16.06-60.94-9.6-28.72-21.33-59.84-29.25-88.75-4.69-17.14-6-28.7,1.07-45.46l7.19-11.31Z" style="fill: #0c8c46;"/>
  <path d="M425,104c-20.3-9.99-39.31-11.07-60-1,12.96-9.78,33.89-10.06,49.01-5.51,3.14.94,10.51,2.83,10.99,6.51Z" style="fill: #0c8c46;"/>
  <path d="M550,327c1.26-1.75,3.87,3.78,4.17,4.33,1.98,3.76,2.76,7.07,4.33,10.7.98,2.26.72,2.3,3.5,1.96-.23.2-1.34,3.91-3.99,4-.9-7.43-4.36-14.57-8.01-21Z" style="fill: #0c8c46;"/>
  <path d="M443,118l-9-9c4.25,3.1,5.91,4.72,9,9Z" style="fill: #0c8c46;"/>
  <path d="M512,422c8.71-1.88,28.67-6.69,36.49-5.99,38.84,3.52,51.18,57.49,15.49,74.47-3.78,1.8-8.45,3.2-12.47,4.53-42.58,14.1-90.12,21.5-132.16,35.83-7.9,2.69-13.72,9.09-7.9,17.19,6.32,8.79,13.25,3.5,21.53,1.96.9.95-1.99,7.85,2.01,7,.06,2.3.13,4.71,0,7-3.16-.55-1.79,1.59-1.97,3.49-1.46,15.43-6.12,27.01-15.03,39.51-.34.33-.65.68-1,1-.15.14-1.4-.42-2.09.6-4.76,7.12,5.53,19.47,14.37,15.38,1.35-.62,11.38-13.4,12.7-15.5,6.29-10.03,10.66-23.14,11.02-34.48.03-1-.02-2,0-3,3.03.56,1.92-1.53,2-3.45.31-7.91-.43-15.66-.95-23.5,18.62-5.06,39.09-8.98,56.95-16.04.98-.39,1.85-1.09,3-1-.81,13.76,4,26.52,12.17,37.33,2.3,3.04,3.77,3.88,5.83,5.67.35.31.65.7,1,1,3.61,5.6,10.42,10.16,16.64,12.86,22.94,9.95,49.55,8.81,67.36-9.86.32-.34.7-.66,1-1,2.31.83,1.62-2.98,3.49-1.99,1.15.61,4.49,6.36,6,8,20.6,22.51,56.48,26.04,79.51,4.99,2.05-1.87,3.17-2.57,5-5,4.23-.6,1,3.06,1,4.5v21c0,3.52-.74,10.3-1,14.5-.36,5.65-.47,11.36-1,17-1.85,1.02-1.63,2.8-1.98,4.52-4.4,21.66-7.31,37.72-15.33,58.67-2.15,5.62-10.68,20.45-10.68,25.32v136.5h-310l-1.08-128.42c-13.48-42.42-30.25-84.1-43.41-126.59-9.85-31.78-1.8-34.96,11.5-61,.68-1.32,1.13-3.3,2-5l7.2-10.3c10.6-19.81,19.41-43.21,30.6-62.4,9.3-15.94,12.72-17.41,30.18-21.82,30.99-7.82,63.71-14.63,95.01-21.49,2.39-.52,4.8-1.53,7-2ZM627,625c1.79-2.72.97-1.88-1.49-2-6.87-.33-26.11-1.18-31.81.02-.48.1-6.75,5.54-6.7,6.98-10.84,8.99-23.1,20-33,30-.36-1.7-4.3,1.8-4.49,2.01-1.3,1.44-3.11,3.63-3.46,5.54-.51,2.76-.73,20.45,2.45,20.45h27c.16,0,2.5-1.73,2.5.5v92c0,3.41-21.04-.22-24,2.5-.33,0-.67,0-1,0-.06,0-.67-1.96-1-.5,1.08,12.01-1.42,26.34-.05,38.05.12,1.01.46,3.45,1.55,3.45h97c1.1,0,1.43-2.44,1.55-3.45,1.34-11.42-1.12-25.38-.02-37.1-.13-1.02-.01-1.12-1.03-1.45-5.03-1.64-16.53,2.03-22-1,6.14-.19,12.36.26,18.51,0,1.23-.05,3.71.76,3.49-1h-21l-1-155c-.66-.04-1.34.06-2,0ZM516,668c-8.76-2.17-18.79-.62-27.83-.83l-7.17,31.83h-19c.47-6.12,7.34-25.74,5.86-30.34-.18-.55-1.01-1.66-1.36-1.66h-27c-.32,0-2.35,1.02-2.49,1.74l-6.1,30.16-21.9.11,1,.99c-2.32,5.81-3.06,11.87-4,18-3.4,1.68-4.05,10,.5,10h17.5l-4.01,20.01c-7.09-1.65-14.85-1.29-22.03-.51-.59.32-.68.99-.96,1.51-1.2,2.24-5.64,25.15-5,27,.11,1.37,1.47.92,2.44,1.04,2.96.37,17.91-.7,18.56-.04-.36,10.56-5.5,20.43-5,31h31l6-31h18l-5.91,28.89c.82.02,2.06,1.11,2.41,1.11h28.5c1.93-8.86,5.14-17.86,5-27,.3-1.12-.37-3.07.11-4.4l.89-.6c-.56,3.02,1.53,1.94,3.45,2,4.39.15,17.71.8,20.55-1,1.4-.89,1.38-.89,1.98-2.48,1.18-3.15,3.62-15.61,3.97-19.18.27-2.83-.66-2.99-.95-4.33-.07-.34.1-.74,0-1-.17-.45.15-1.38,0-2-.82-.62-17.25.43-20.53,0-1.47-.19-1.66.57-1.42-1.43.26-2.17,3.17-16.63,3.88-17.14l20.9-.61c1.91-1.17,6.04-24.81,6.17-28.83h-21c1.74-4.52,1.38-9.44,2-14,.09-.65-.09-1.35,0-2,3.1.59,1.7-1.52,2.12-3.33.76-3.25,2.98-7.73.88-10.67-.14-.2.15-.95,0-1Z" style="fill: #0eb17a;"/>
  <path d="M518,775c-.13.28.15.93,0,1-7.43-.61-15.89,1.29-23-1,6.95-.97,15.8.71,23,0Z" style="fill: #0eb17a;"/>
  <path d="M372,122c16.1-9.43,35.11-7.66,50,3,1.52,1.09,3.73,2.73,5,4-.27,3.25,2.78,4.31,4.18,7.31,3.67,7.85,3.57,15.85,4.81,24.2l1.01,175.99c1.42,1.62.98-1.11,1.01-1.98.57-19.1-.02-38.41,0-57.52,1.66,1.04,1,3.79,1.02,5.49.38,30.84,2.49,69.78-2.02,99.51-.37,2.47-1.48,5.85-1.88,8.62-.65,4.55-1.5,25.48-3.6,27.4-13.98,4.79-30.95,5.43-44.2,11.8-1.33.64-8.36,4.71-9.15,5.37-.52.43-.05,1.69-.17,1.8-2.45,2.2-3.83,3.38-6,6-4.53,5.48-5.78,7.75-9,14-1.69,3.27-3.53,6.63-5,10-2.71,1.78-1.9.98-2-1.49-1.3-32.25.98-65.2,0-97.51-1.74-.23-.94,2.27-.99,3.48-.6,14.57.02,29.86,0,44.51-1.66-1.04-1-3.79-1.02-5.49-.3-24.15.02-48.37.02-72.51,1.66-1.04,1-3.79,1.02-5.49.75-60.31-.61-120.68,0-181,1.1-9.66,5.66-18.31,11.98-25.52,1.54-1.29,3.36-3.04,5-4Z" style="fill: #0eb17a;"/>
  <path d="M653,425c3.14.57,1.72-1.54,2.02-3.43,2.44-14.88,9.49-27.1,25.76-29.29,27.03-3.64,38.7,17,37.2,41.2-1.39,22.45-6.17,47.47-8.86,70.14-1.67,14.06-2.06,46.76-8.48,57.52-15.86,26.6-65.54,18.1-64.69-15.69.16-6.58,1.44-15.29,2.05-21.45.33-3.32.61-6.69,1-10,3.22.56,1.69-1.62,1.97-3.49,4.1-27.47,9.28-55.46,12.03-82.51.1-.98-.08-2.01,0-3Z" style="fill: #0eb17a;"/>
  <path d="M580,408c.2-2-1.16-2.18-2.44-3.01-6.65-4.34-13.69-7.97-21.58-9.5,2.26-11.64,3.55-22.86,12.49-31.52,17.51-16.98,56.52-9.88,65.43,12.82,7.5,19.1-4.34,62.17-7.74,83.87-4.08,25.99-6.53,57.62-12.46,82.54-5.1,21.43-29.68,29.82-49.51,24.09-19.97-5.77-31.08-24.87-29.07-45.17,20.74-5.87,40.58-10.29,55.84-26.66,19.68-21.12,20.53-55.78,1.03-76.47-4.15-4.41-7.18-7.57-12-11Z" style="fill: #0eb17a;"/>
  <path d="M486,407c-1.44.27-3.34-.07-5.19.28-8.98,1.7-17.82,4.61-26.81,5.71,4.5-22.55,3.56-46.35,10.14-68.35,10.31-20.33,44.47-27.38,62.33-13.62,2.8,2.16,4.34,5.93,7.53,6.97.13.27-.12.72,0,1l7,19c.23,5.7-1.22,13.16-2,19-3.29,4.77-3.35,12.21-4.13,17.86-7.96,2.02-15.94,3.99-23.87,6.14-2.33.63-4.69,1.39-7,2-4.56.16-11.68.56-15,4-.92.16-2.09-.17-3,0Z" style="fill: #0eb17a;"/>
  <path d="M340,545c-13.3,26.04-21.35,29.22-11.5,61,13.16,42.48,29.94,84.17,43.41,126.59l1.08,128.42h310v-136.5c0-4.87,8.53-19.7,10.68-25.32,8.03-20.95,10.93-37,15.33-58.67.35-1.71.14-3.5,1.98-4.52-1.97,20.8-6.98,40.59-14.53,59.97-2.92,7.5-12.47,24.53-12.47,31.53v134.5c-48.32.02-96.68-.02-145,0-53.47.03-107.04-.58-160.51-.02-1.69.02-4.45-.64-5.49,1.02h-2c-.08-.66.06-1.35,0-2,1.68-5.08,1.67-12.99,0-18-.26-36.4.41-72.84-.26-109.24-13.97-44.8-33.33-90.14-45.76-135.24-6.44-23.39,1.07-31.61,12.21-50.87.77-1.33.31-3.2,2.8-2.64Z" style="fill: #0c8c46;"/>
  <path d="M354,338c0-61.84-1.17-123.64-.99-185.49,1.7-10.89,5.53-19.43,13.99-26.51-6.33,7.2-10.88,15.86-11.98,25.52-.61,60.32.75,120.68,0,181-.02,1.69.64,4.45-1.02,5.49Z" style="fill: #0c8c46;"/>
  <path d="M438,277c-.02,19.11.57,38.41,0,57.52-.03.87.41,3.6-1.01,1.98l-1.01-175.99c-1.24-8.35-1.14-16.35-4.81-24.2-1.4-3-4.45-4.06-4.18-7.31,14.17,14.14,9.5,39.03,9.96,57.54.06,2.37,1.04,4.55,1.08,6.92.55,27.79-.02,55.75-.04,83.54Z" style="fill: #0c8c46;"/>
  <path d="M512,422c15.63-5.06,33.39-10.95,49.36-3.86,29.85,13.26,35.06,54.28,6.33,72.05-49.36,18.37-101.75,28.64-152.27,43.78-6.71,3.36-5.78,15.34,2.31,16.79,6.51,1.17,10.2-1.94,16.26-2.76.29,2.98.92,6.01,1.01,9-3.99.85-1.11-6.05-2.01-7-8.28,1.54-15.22,6.82-21.53-1.96-5.82-8.1,0-14.49,7.9-17.19,42.04-14.33,89.58-21.73,132.16-35.83,4.01-1.33,8.69-2.73,12.47-4.53,35.69-16.98,23.35-70.96-15.49-74.47-7.82-.71-27.79,4.11-36.49,5.99Z" style="fill: #0c8c46;"/>
  <path d="M653,425c3.86-49.96,68.49-43.23,66.99,3.49-.94,29.22-8.16,64.65-11.69,94.29-1.51,12.7.13,26.21-6.13,37.88-13.26,24.73-55.65,22.92-65.92-3.4-4.1-10.5-.84-22.66,1.76-33.26-.6,6.16-1.88,14.87-2.05,21.45-.85,33.8,48.83,42.29,64.69,15.69,6.42-10.76,6.81-43.46,8.48-57.52,2.7-22.67,7.47-47.68,8.86-70.14,1.5-24.2-10.17-44.84-37.2-41.2-16.27,2.19-23.32,14.41-25.76,29.29-.31,1.88,1.11,4-2.02,3.43Z" style="fill: #0c8c46;"/>
  <path d="M580,408c-7.76-5.53-16.43-9.75-26.01-11.01,1.9-6.24,2.15-13.03,4.28-19.22,14.33-41.53,86.64-29.7,79.65,24.65-5.25,40.83-14.06,84.2-20.82,125.18-1.64,9.91.17,16.6-6.27,25.73-25.94,36.77-81.99,11.11-77.87-31.67,14.37-5.62,29.91-7.9,43.35-15.86,27.96-16.56,35.81-49,21.22-77.82-1.59-3.14-4.13-5.88-5.52-8.98,19.5,20.69,18.65,55.35-1.03,76.47-15.26,16.37-35.1,20.79-55.84,26.66-2.01,20.3,9.1,39.4,29.07,45.17,19.83,5.73,44.41-2.66,49.51-24.09,5.93-24.92,8.38-56.55,12.46-82.54,3.4-21.7,15.24-64.78,7.74-83.87-8.92-22.71-47.92-29.8-65.43-12.82-8.94,8.66-10.23,19.88-12.49,31.52,7.89,1.53,14.93,5.16,21.58,9.5,1.27.83,2.63,1.02,2.44,3.01Z" style="fill: #0c8c46;"/>
  <path d="M505,424c-31.31,6.86-64.02,13.66-95.01,21.49-17.46,4.41-20.88,5.88-30.18,21.82-11.2,19.19-20,42.59-30.6,62.4l-7.2,10.3c12.22-23.96,25.97-56.93,39.8-78.7,4.67-7.35,11.84-13.37,20.35-15.65,32.41-5.58,65.84-16.84,98.09-21.93,1.73-.27,3.07-.03,4.76.28Z" style="fill: #0c8c46;"/>
  <path d="M539,862l-166,1c1.04-1.66,3.79-1,5.49-1.02,53.48-.56,107.04.05,160.51.02Z" style="fill: #0eb17a;"/>
  <path d="M653,428c-2.75,27.05-7.93,55.05-12.03,82.51-.28,1.87,1.25,4.05-1.97,3.49,3.38-28.78,9.05-57.47,14-86Z" style="fill: #0c8c46;"/>
  <path d="M511,528c-17.86,7.06-38.33,10.99-56.95,16.04.52,7.84,1.26,15.59.95,23.5-.08,1.92,1.03,4.01-2,3.45.02-1,0-2,0-3,1.67-3.35,1.7-10.44,0-14-.11-3.8-.89-7.2-.93-10.93l58.93-15.07Z" style="fill: #0c8c46;"/>
  <path d="M378,437c.13-.11-.34-1.37.17-1.8.8-.67,7.83-4.74,9.15-5.37,13.25-6.37,30.21-7.01,44.2-11.8,2.1-1.92,2.95-22.85,3.6-27.4.4-2.77,1.5-6.15,1.88-8.62l-3.44,37.06c-18.46,6.33-39.46,5.98-55.56,17.94Z" style="fill: #0c8c46;"/>
  <path d="M486,407l-34,7.99,7.25-59.24c4.9-26.27,34.84-39.83,59.12-30.62,5.51,2.09,13.26,7.84,15.63,12.87-3.19-1.05-4.73-4.81-7.53-6.97-17.86-13.77-52.02-6.71-62.33,13.62-6.58,22-5.64,45.8-10.14,68.35,8.99-1.1,17.83-4.02,26.81-5.71,1.85-.35,3.75-.01,5.19-.28Z" style="fill: #0c8c46;"/>
  <path d="M355,416c.02-14.65-.6-29.94,0-44.51.05-1.22-.75-3.72.99-3.48.99,32.31-1.29,65.26,0,97.51.1,2.47-.71,3.26,2,1.49-.86,1.95-1.18,5.91-2.99,6.99,0-19.32-.03-38.68-.01-57.99Z" style="fill: #0c8c46;"/>
  <path d="M337,424c-1.66-1.04-1-3.79-1.02-5.49-.41-33.48.02-67.04.02-100.51,1.66,1.04,1,3.79,1.02,5.49.41,33.47.06,67.05-.02,100.51Z" style="fill: #0eb17a;"/>
  <path d="M533,571c19.03,16.16,45.23,23.03,68.99,12.49,5.39-2.39,10-6.48,15.01-9.49-17.81,18.67-44.41,19.81-67.36,9.86-6.22-2.7-13.03-7.25-16.64-12.86Z" style="fill: #0c8c46;"/>
  <path d="M618,573c1.14-1.3,1.98-2.96,3.5-3.98,7.66,12.86,19.39,21.12,33.74,25.24,19.07,5.48,35.79.77,51.76-10.26-23.03,21.05-58.91,17.52-79.51-4.99-1.51-1.65-4.85-7.4-6-8-1.87-.99-1.18,2.83-3.49,1.99Z" style="fill: #0c8c46;"/>
  <path d="M712,579c1.25-1.67,1.6-6.61,4.01-4.49-3.25,14.62,0,30.17-4.01,44.49.26-4.2,1-10.98,1-14.5v-21c0-1.44,3.23-5.1-1-4.5Z" style="fill: #0c8c46;"/>
  <path d="M372,122c10.73-9.63,28.62-9.95,41.38-3.88l8.62,6.88c-14.89-10.66-33.9-12.43-50-3Z" style="fill: #0c8c46;"/>
  <path d="M539,377c-.88,6.64-1.94,13.32-3.08,19.92-8.47.46-16.35,4.65-24.92,4.08,7.93-2.15,15.91-4.12,23.87-6.14.79-5.65.84-13.09,4.13-17.86Z" style="fill: #0c8c46;"/>
  <path d="M435,564c-.85,15.47-5.87,31.92-17,43,8.92-12.5,13.57-24.09,15.03-39.51.18-1.9-1.19-4.04,1.97-3.49Z" style="fill: #0c8c46;"/>
  <path d="M532,570c-2.06-1.79-3.54-2.63-5.83-5.67-8.16-10.81-12.98-23.57-12.17-37.33,1.5.18,1.32,8.7,1.76,10.75,2.56,12.01,8.4,22.93,16.24,32.25Z" style="fill: #0c8c46;"/>
  <path d="M534,339c2.39-.52,2.09,1.19,2.82,2.63,2.25,4.41,3.98,11.46,4.18,16.37l-7-19Z" style="fill: #0c8c46;"/>
  <path d="M453,574c-.36,11.34-4.73,24.45-11.02,34.48-1.32,2.1-11.35,14.87-12.7,15.5-8.84,4.09-19.13-8.26-14.37-15.38.68-1.02,1.94-.46,2.09-.6-5.61,9.77,4.72,19.57,14.02,12.52,11.74-8.91,18.69-32.75,21.98-46.52Z" style="fill: #0c8c46;"/>
  <path d="M734,504c0-6.06-.85-13.33,1-19,0,6.06.85,13.32-1,19Z" style="fill: #0eb17a;"/>
  <path d="M504,403c-4.87,1.29-9.76,3.09-15,4,3.32-3.44,10.44-3.84,15-4Z" style="fill: #0c8c46;"/>
  <path d="M371,861c-.54-5.51.04-12.28,0-18,1.67,5.01,1.68,12.92,0,18Z" style="fill: #0eb17a;"/>
  <path d="M453,568c.02-4.64.14-9.36,0-14,1.7,3.56,1.67,10.65,0,14Z" style="fill: #0eb17a;"/>
  <path d="M372,443l-9,14c3.22-6.25,4.47-8.52,9-14Z" style="fill: #0c8c46;"/>
  <path d="M627,625c.66.06,1.34-.04,2,0v156c5.47,3.03,16.97-.64,22,1v41h-98v-40c.33,0,.67,0,1,0,8.32.1,16.68-.08,25,0v-97h-31v-20.5c0-2.01,4.61-4.1,6-5.5,9.9-10,22.16-21.01,33-30,.96-.8,4.43-3.89,4.7-4.05,2.53-1.51,30.48-1.39,35.3-.95Z" style="fill: #fefefe;"/>
  <path d="M410,700l21.86-.14,7.14-31.86h28l-7,32h22l6.94-31.56,27.06-.44c.15.05-.14.8,0,1-.87,4.67-2.35,9.28-3,14-.09.65.09,1.35,0,2l-4,15h21c.49,8.88-3.83,17.13-4.01,25.99l-22.05.45c-.89.62-4.58,18.54-4.89,21.13-.24,2-.05,1.24,1.42,1.43,6.89.9,15.43-.66,22.52,0,.1.26-.07.66,0,1-2.37,6.75-2.25,19.08-5,25-7.2.71-16.05-.97-23,0-.33.05-.67-.03-1,0l-.89.6c-.48,1.33.19,3.28-.11,4.4-2.2,8.29-4.56,16.52-6,25h-28c1.41-10.08,3.26-20.31,6-30h-21l-6,31h-29l6-30.99-23,.99c-.64-1.85,3.8-24.76,5-27,6.69-.88,16.23,1.2,22.51,0,1.35-.26,1.78-.3,2.3-1.7,2.14-5.75,1.89-15.16,4.19-21.3h-21c-.76-2.96.63-5.55,1-8.01.94-6.13,1.68-12.19,4-18ZM473,735c1.38-2.81,2.32-5.81,2-9h-21l-4,23c2.82-.57,20.29.78,21.01.01.3-.32-.51-5.63,1-7.01.4-1.22.88-5.44,1-7Z" style="fill: #fefefe;"/>
  <path d="M392,776l23-.99-6,30.99h29l6-31h21c-2.74,9.69-4.59,19.92-6,30h28c1.44-8.48,3.8-16.71,6-25,.14,9.14-3.07,18.14-5,27h-28.5c-.35,0-1.59-1.1-2.41-1.11l5.91-28.89h-18l-6,31h-31c-.5-10.57,4.64-20.44,5-31-.65-.66-15.6.41-18.56.04-.97-.12-2.33.33-2.44-1.04Z" style="fill: #0c8c46;"/>
  <path d="M554,660c-1.39,1.4-6,3.49-6,5.5v20.5h31v97c-8.32-.08-16.68.1-25,0,2.96-2.72,24,.91,24-2.5v-92c0-2.23-2.34-.5-2.5-.5h-27c-3.18,0-2.96-17.69-2.45-20.45.35-1.91,2.16-4.1,3.46-5.54.19-.21,4.13-3.71,4.49-2.01Z" style="fill: #0c8c46;"/>
  <path d="M629,625l1,155h21c.22,1.76-2.26.95-3.49,1-6.15.26-12.37-.19-18.51,0v-156Z" style="fill: #0c8c46;"/>
  <path d="M406,718c-.38,2.45-1.76,5.05-1,8h21c-2.3,6.15-2.05,15.55-4.19,21.31-.52,1.4-.95,1.44-2.3,1.7-6.28,1.19-15.81-.88-22.51,0,.28-.52.36-1.19.96-1.51,7.19-.78,14.95-1.14,22.03.51l4.01-20.01h-17.5c-4.55,0-3.9-8.32-.5-10Z" style="fill: #0c8c46;"/>
  <path d="M513,685c-.62,4.56-.26,9.48-2,14h21c-.13,4.02-4.26,27.66-6.17,28.83l-20.9.61c-.71.51-3.62,14.97-3.88,17.14-.24,2-.05,1.24,1.42,1.43,3.28.43,19.71-.62,20.53,0,.15.62-.18,1.55,0,2-7.09-.66-15.63.9-22.52,0-1.47-.19-1.66.57-1.42-1.43.31-2.59,4-20.51,4.89-21.13l22.05-.45c.18-8.86,4.5-17.11,4.01-25.99h-21l4-15Z" style="fill: #0c8c46;"/>
  <path d="M410,700l-1-.99,21.9-.11,6.1-30.16c.15-.72,2.18-1.74,2.49-1.74h27c.35,0,1.19,1.12,1.36,1.66,1.48,4.6-5.39,24.22-5.86,30.34h19l7.17-31.83c9.04.21,19.08-1.35,27.83.83l-27.06.44-6.94,31.56h-22l7-32h-28l-7.14,31.86-21.86.14Z" style="fill: #0c8c46;"/>
  <path d="M553,783v40h98v-41c1.01.33.9.43,1.03,1.45-1.09,11.72,1.36,25.68.02,37.1-.12,1.01-.46,3.45-1.55,3.45h-97c-1.1,0-1.43-2.44-1.55-3.45-1.37-11.7,1.13-26.03.05-38.05.34-1.47.95.5,1,.5Z" style="fill: #0c8c46;"/>
  <path d="M587,630c-.04-1.44,6.23-6.88,6.7-6.98,5.7-1.21,24.94-.36,31.81-.02,2.45.12,3.27-.72,1.49,2-4.81-.44-32.77-.56-35.3.95-.27.16-3.74,3.25-4.7,4.05Z" style="fill: #0c8c46;"/>
  <path d="M518,776c-2.83,1.8-16.16,1.15-20.55,1-1.92-.06-4.01,1.02-3.45-2,.33-.03.67.05,1,0,7.11,2.29,15.57.39,23,1Z" style="fill: #0c8c46;"/>
  <path d="M518,776c.15-.07-.13-.72,0-1,2.75-5.92,2.63-18.25,5-25,.28,1.35,1.22,1.5.95,4.33-.34,3.57-2.78,16.04-3.97,19.18-.6,1.59-.58,1.6-1.98,2.48Z" style="fill: #0c8c46;"/>
  <path d="M516,669c2.1,2.94-.12,7.42-.88,10.67-.42,1.81.98,3.92-2.12,3.33.65-4.72,2.13-9.33,3-14Z" style="fill: #0c8c46;"/>
  <path d="M472,742c-.03.08-1.1.2-1.45,1.01-.59,1.37-.51,4.44-2,4.75-5.49-2.03-11.03.09-16.55.24-.73-.73,2.57-18.08,4.5-20h16.5c.37,1.94-.82,3.77-.86,5.53-.02.77.87,1.35.86,1.47-.12,1.56-.6,5.78-1,7Z" style="fill: #0eb17a;"/>
  <path d="M472,742c-1.51,1.37-.7,6.69-1,7.01-.72.76-18.19-.58-21.01-.01l4-23h21c.32,3.19-.62,6.19-2,9,0-.12-.88-.7-.86-1.47.04-1.76,1.23-3.59.86-5.53h-16.5c-1.93,1.92-5.23,19.27-4.5,20,5.52-.15,11.06-2.27,16.55-.24,1.49-.3,1.42-3.37,2-4.75.34-.81,1.42-.93,1.45-1.01Z" style="fill: #0c8c46;"/>
</svg>